<?xml version="1.0" encoding="UTF-8"?>
<svg id="Capa_1" data-name="Capa 1" xmlns="http://www.w3.org/2000/svg" viewBox="0 0 377.15 137.93">
  <defs>
    <style>
      .cls-1 {
        fill: #213747;
      }
    </style>
  </defs>
  <path class="cls-1" d="M81.96,131.76h11.46v6.17H0l.42-5.95,11.04.22v-63.01l10.94-6.46.14-22.99,22.4-12.41V.67c0-.18-1.13-.77.21-.66l25.57,17.18.3,36.71,11.17,7.79c.14.35-.23.58-.23.67v69.4ZM55.52,131.76V16.09l-4.85-3.3v118.75l.64.55,4.21-.33ZM44.95,34.38l-5.29,2.64v95.18l5.29-.44V34.38ZM33.49,132.2V40.99l-4.85,2.86v88.35c1.6-.84,3.2-.42,4.85,0ZM76.23,131.76v-66.32l-5.29-3.75v70.06h5.29ZM22.47,70.51l-5,2.6-.29,57.99.64.99,4.65.11v-61.69Z"/>
  <g>
    <path class="cls-1" d="M178.6,75.74h-31.12l-4.99,14.73h-21.26L151.4,7.08h23.52l30.17,83.39h-21.5l-4.99-14.73ZM173.37,60.06l-10.34-30.53-10.22,30.53h20.55Z"/>
    <path class="cls-1" d="M273.28,90.47l-7.72-7.48c-7.68,5.86-16.87,8.79-27.56,8.79-6.42,0-12-1.05-16.75-3.15-4.75-2.1-8.42-5.07-10.99-8.91-2.57-3.84-3.86-8.33-3.86-13.48s1.41-9.96,4.22-14.2c2.81-4.24,7.03-7.7,12.65-10.39-2.06-2.53-3.52-4.97-4.4-7.31-.87-2.34-1.31-4.89-1.31-7.66,0-3.96,1.03-7.56,3.09-10.81,2.06-3.25,5.05-5.8,8.97-7.66,3.92-1.86,8.57-2.79,13.96-2.79s10.1.99,13.9,2.97c3.8,1.98,6.65,4.63,8.55,7.96,1.9,3.33,2.77,6.97,2.61,10.93h-19.12c.08-2.14-.46-3.78-1.6-4.93-1.15-1.15-2.67-1.72-4.57-1.72s-3.49.56-4.75,1.66c-1.27,1.11-1.9,2.54-1.9,4.28s.54,3.41,1.6,5.23c1.07,1.82,2.75,3.92,5.05,6.3l20.31,19.84c.16-.4.37-.87.65-1.43.28-.55.57-1.19.89-1.9l4.4-7.48h20.31l-5.7,10.33c-2.14,4.67-4.59,9.11-7.36,13.3l20.08,19.72h-23.64ZM253.08,70.87l-18.53-17.94c-5.7,2.93-8.55,6.89-8.55,11.88,0,3.01,1.17,5.52,3.5,7.54,2.34,2.02,5.48,3.03,9.44,3.03,5.3,0,10.02-1.5,14.14-4.51Z"/>
    <path class="cls-1" d="M377.15,7.08l-29.58,83.39h-25.42l-29.58-83.39h21.62l20.67,62.96,20.79-62.96h21.5Z"/>
  </g>
  <g>
    <path class="cls-1" d="M145.1,126.22h-15.92l-2.93,8.12h-5.03l13.19-36.28h5.5l13.14,36.28h-5.03l-2.93-8.12ZM143.73,122.34l-6.6-18.43-6.6,18.43h13.19Z"/>
    <path class="cls-1" d="M174.05,130.46h12.77v3.87h-17.54v-36.49h4.76v32.62Z"/>
    <path class="cls-1" d="M224.83,97.84v3.87h-9.95v32.62h-4.76v-32.62h-10v-3.87h24.71Z"/>
    <path class="cls-1" d="M245.82,97.84v23.09c0,3.25.79,5.65,2.38,7.22,1.59,1.57,3.8,2.36,6.62,2.36s4.98-.79,6.57-2.36c1.59-1.57,2.38-3.98,2.38-7.22v-23.09h4.76v23.04c0,3.04-.61,5.59-1.83,7.67-1.22,2.08-2.87,3.62-4.95,4.63-2.08,1.01-4.41,1.52-6.99,1.52s-4.91-.51-6.99-1.52c-2.08-1.01-3.72-2.56-4.92-4.63-1.2-2.08-1.81-4.63-1.81-7.67v-23.04h4.76Z"/>
    <path class="cls-1" d="M306.18,134.33l-8.69-14.92h-5.76v14.92h-4.76v-36.49h11.78c2.76,0,5.09.47,6.99,1.41,1.9.94,3.32,2.22,4.27,3.82.94,1.61,1.41,3.44,1.41,5.5,0,2.51-.73,4.73-2.17,6.65-1.45,1.92-3.62,3.19-6.52,3.82l9.16,15.29h-5.71ZM291.74,115.59h7.02c2.58,0,4.52-.64,5.81-1.91,1.29-1.27,1.94-2.98,1.94-5.1s-.64-3.84-1.91-5.03c-1.27-1.19-3.22-1.78-5.84-1.78h-7.02v13.82Z"/>
    <path class="cls-1" d="M350.84,126.22h-15.92l-2.93,8.12h-5.03l13.19-36.28h5.5l13.14,36.28h-5.03l-2.93-8.12ZM349.48,122.34l-6.6-18.43-6.6,18.43h13.19Z"/>
  </g>
</svg>